<svg xmlns="http://www.w3.org/2000/svg" width="64.057" height="64.057" viewBox="0 0 64.057 64.057">
  <g id="Group_2461" data-name="Group 2461" transform="translate(-9.75 -9.75)">
    <path id="Path_5206" data-name="Path 5206" d="M67.831,61.875a8.143,8.143,0,1,0,8.143,8.143A8.152,8.152,0,0,0,67.831,61.875Zm0,14.7a6.554,6.554,0,1,1,6.554-6.554A6.562,6.562,0,0,1,67.831,76.572Z" transform="translate(-10.213 -10.662)" fill="#909090" stroke="#909090" stroke-width="0.5"/>
    <path id="Path_5207" data-name="Path 5207" d="M38.5,52.5a.794.794,0,0,0,.794-.794V16.62a.794.794,0,0,0-.794-.794H36.226l-2.3-2.653A9.356,9.356,0,0,0,26.823,10H22.468a9.358,9.358,0,0,0-7.1,3.171l-2.3,2.654H10.794A.794.794,0,0,0,10,16.62V51.709a.794.794,0,0,0,.794.794h1.928V67.362a2.627,2.627,0,0,0-2.348,2.6v2.8a.794.794,0,0,0,.794.794h4.7a.794.794,0,0,0,.794-.794v-2.8a2.628,2.628,0,0,0-2.348-2.6V55.031l3.552,7.363a.8.8,0,0,0,.716.45h1.437v3.975a.8.8,0,0,0,.794.794h7.5a.8.8,0,0,0,.794-.794V62.843h1.437a.8.8,0,0,0,.715-.45l3.727-7.724V67.362a2.628,2.628,0,0,0-2.348,2.6v2.8a.794.794,0,0,0,.794.794h4.7a.794.794,0,0,0,.794-.794v-2.8a2.627,2.627,0,0,0-2.348-2.6V52.5ZM16.568,14.212a7.77,7.77,0,0,1,5.9-2.623h4.355a7.766,7.766,0,0,1,5.9,2.624l1.4,1.613H15.17Zm-4.979,3.2H37.7v33.5H11.589ZM15.07,69.966v2H11.964v-2a1.044,1.044,0,0,1,1.044-1.043h1.018A1.045,1.045,0,0,1,15.07,69.966Zm12.443-3.942H21.605v-3.18h5.908Zm2.527-4.769H19.078L14.857,52.5H34.262Zm7.288,8.711v2H34.222v-2a1.045,1.045,0,0,1,1.044-1.043h1.018A1.044,1.044,0,0,1,37.329,69.966Z" fill="#909090" stroke="#909090" stroke-width="0.5"/>
    <path id="Path_5208" data-name="Path 5208" d="M32.839,44.375H20.4a.794.794,0,0,0-.794.794v7.349a.794.794,0,0,0,.794.794H32.839a.794.794,0,0,0,.794-.794V45.169A.794.794,0,0,0,32.839,44.375Zm-.794,7.349H21.2v-5.76H32.044Z" transform="translate(-1.975 -7.066)" fill="#909090" stroke="#909090" stroke-width="0.5"/>
    <path id="Path_5209" data-name="Path 5209" d="M80.958,15.4H69.489V10.794A.794.794,0,0,0,68.694,10h-5.76a.794.794,0,0,0-.794.794V15.4H56.912a6.134,6.134,0,0,0-6.127,6.127v20.1h0a15.878,15.878,0,0,0-.91,5.308V72.762a.794.794,0,0,0,.794.794H80.958a.794.794,0,0,0,.794-.794V46.938A15.953,15.953,0,0,0,69.489,31.428v-9.4h11.47a.8.8,0,0,0,.794-.794V16.2A.794.794,0,0,0,80.958,15.4ZM52.374,21.528a4.543,4.543,0,0,1,4.538-4.538H62.14v3.453H58.673A2.578,2.578,0,0,0,56.1,23.018V34.3a16.02,16.02,0,0,0-3.724,4.09Zm9.765.5v9.4a15.8,15.8,0,0,0-4.453,1.812V23.018a.987.987,0,0,1,.986-.986ZM80.164,71.968h-28.7V46.938c0-.265.021-.527.035-.79h28.63c.014.263.035.524.035.79Zm-.2-27.409H51.668A14.355,14.355,0,0,1,63.084,32.851a.8.8,0,0,0,.645-.781V11.589H67.9V32.07a.8.8,0,0,0,.644.781A14.355,14.355,0,0,1,79.96,44.559Zm.2-24.116H69.489V16.99H80.164Z" transform="translate(-8.196)" fill="#909090" stroke="#909090" stroke-width="0.5"/>
  </g>
</svg>
