<svg xmlns="http://www.w3.org/2000/svg" width="226" height="37.406" viewBox="0 0 226 37.406">
  <g id="Group_2429" data-name="Group 2429" transform="translate(-144 -189.868)">
    <path id="Path_5177" data-name="Path 5177" d="M158.733,223.711v5.555H144v-24.5h14.457v5.555h-8.384v3.864h6.97v5.486h-6.97v4.037Z" transform="translate(0 -8.219)" fill="#fff"/>
    <path id="Path_5178" data-name="Path 5178" d="M187.547,204.769h6.072L203,219.329h.173v-14.56h6.072v24.5h-6.072l-9.385-14.56h-.173v14.56h-6.072Z" transform="translate(-24.02 -8.219)" fill="#fff"/>
    <path id="Path_5179" data-name="Path 5179" d="M339.8,216.594c0-4.175-2.9-6.832-6.487-6.832-3.623,0-6.521,2.657-6.521,6.832s2.9,6.831,6.521,6.831c3.589,0,6.487-2.657,6.487-6.831m-19.253,0c0-7.487,5.762-12.594,12.766-12.594a12.594,12.594,0,1,1,0,25.187c-7,0-12.766-5.107-12.766-12.594" transform="translate(-97.383 -7.795)" fill="#fff"/>
    <path id="Path_5180" data-name="Path 5180" d="M388.409,204.769h6.659l6.866,16.768,6.866-16.768h6.694v24.5h-6.073v-12.9h-.173l-5.071,12.9h-4.452l-5.072-12.9h-.172v12.9h-6.073Z" transform="translate(-134.813 -8.219)" fill="#fff"/>
    <path id="Path_5181" data-name="Path 5181" d="M472.686,213.36c0-2.381-1.552-3.036-3.45-3.036h-2.588v6.038h2.588c1.9,0,3.45-.587,3.45-3m6.142,0c0,5.21-3.692,8.557-9.04,8.557h-3.14v7.349h-6.072v-24.5h9.212c5.348,0,9.04,3.278,9.04,8.591" transform="translate(-174.619 -8.219)" fill="#fff"/>
    <path id="Path_5182" data-name="Path 5182" d="M515.254,220.226l-2.795-8-2.76,8Zm1.967,5.555h-9.454l-1.208,3.485h-6.589l9.247-24.5h6.521l9.247,24.5h-6.556Z" transform="translate(-196.348 -8.219)" fill="#fff"/>
    <path id="Path_5183" data-name="Path 5183" d="M560.518,223.012l4.9-2.277c.69,1.415,1.794,3,3.933,3,1.414,0,2.691-.69,2.691-2.347,0-1.173-.552-1.76-2.725-2.622l-1.518-.586c-3.174-1.277-6.383-3.037-6.383-7.211,0-4.348,3.658-6.969,7.97-6.969a8.89,8.89,0,0,1,8.246,5.244l-4.485,2.554c-1.069-1.794-2.243-2.45-3.519-2.45s-2.242.552-2.242,1.725c0,.9.517,1.621,3,2.587l1.656.656c4.52,1.829,6.315,3.865,6.315,7.143,0,5.278-4.728,7.728-8.9,7.728-4.347,0-8-2.588-8.936-6.176" transform="translate(-229.746 -7.796)" fill="#fff"/>
    <path id="Path_5184" data-name="Path 5184" d="M608.219,223.012l4.9-2.277c.69,1.415,1.794,3,3.933,3,1.414,0,2.691-.69,2.691-2.347,0-1.173-.552-1.76-2.725-2.622l-1.518-.586c-3.174-1.277-6.383-3.037-6.383-7.211,0-4.348,3.658-6.969,7.97-6.969a8.89,8.89,0,0,1,8.246,5.244l-4.485,2.554c-1.069-1.794-2.242-2.45-3.519-2.45s-2.242.552-2.242,1.725c0,.9.517,1.621,3,2.587l1.655.656c4.521,1.829,6.315,3.865,6.315,7.143,0,5.278-4.728,7.728-8.9,7.728-4.347,0-8-2.588-8.936-6.176" transform="translate(-256.057 -7.796)" fill="#fff"/>
    <g id="Group_2428" data-name="Group 2428" transform="translate(189.318 189.868)">
      <path id="Path_5185" data-name="Path 5185" d="M289.29,211.15a7.889,7.889,0,0,1,5.46,3.49l2.022-1.4a10.343,10.343,0,0,0-7.483-4.57Z" transform="translate(-269.458 -200.241)" fill="#e03116"/>
      <path id="Path_5186" data-name="Path 5186" d="M280.661,223.3a7.874,7.874,0,1,1-8.152-12.01v-2.492a10.333,10.333,0,1,0,10.177,15.9Z" transform="translate(-255.358 -200.308)" fill="#e03116"/>
      <path id="Path_5187" data-name="Path 5187" d="M261.012,196.26a16.228,16.228,0,0,1,24.073,3.251l2.02-1.395a18.68,18.68,0,0,0-27.832-3.6Z" transform="translate(-252.901 -189.868)" fill="#e03116"/>
      <path id="Path_5188" data-name="Path 5188" d="M277.263,225.675a16.242,16.242,0,1,1-25.971-19.434l-1.741-1.741a18.7,18.7,0,1,0,29.734,22.567Z" transform="translate(-245.062 -197.939)" fill="#e03116"/>
      <path id="Path_5189" data-name="Path 5189" d="M259.392,221.114a12.048,12.048,0,1,1,19.5-14.12l2.058-1.421a14.55,14.55,0,1,0-23.342,17.321Z" transform="translate(-250.163 -194.97)" fill="#e03116"/>
      <path id="Path_5190" data-name="Path 5190" d="M285.29,246.421a12.035,12.035,0,0,1-17.638,2.7l-1.776,1.776a14.536,14.536,0,0,0,21.474-3.056Z" transform="translate(-256.543 -221.062)" fill="#e03116"/>
    </g>
  </g>
</svg>
