<svg xmlns="http://www.w3.org/2000/svg" width="70.593" height="71.053" viewBox="0 0 70.593 71.053">
  <path id="Path_5210" data-name="Path 5210" d="M264.894,373.866a2.827,2.827,0,1,1,2.827-2.827,2.871,2.871,0,0,1-2.827,2.827m-27.58,27.58a2.827,2.827,0,1,1-2.827-2.827,2.821,2.821,0,0,1,2.827,2.827m-12-42.86,15.739,7.869-6.571,3.285-15.737-7.869Zm6.342-17.955a2.827,2.827,0,1,1,2.826,2.827,2.819,2.819,0,0,1-2.826-2.827m11.994,24.524-15.737-7.792,6.569-3.285,15.739,7.792Zm-26.281,14.288V363.781l15.967,8.022v15.737Zm18.26,8.021V371.726l6.875-3.437v5.271a1.146,1.146,0,0,0,2.293,0v-6.341l6.875-3.438v15.662Zm20.321,2.216a2.909,2.909,0,0,1,1.987.84,2.809,2.809,0,1,1-3.972,0,2.908,2.908,0,0,1,1.985-.84m-40.95,4.813a2.809,2.809,0,1,1-3.973-3.973,2.77,2.77,0,0,1,3.973,0,2.861,2.861,0,0,1,0,3.973M204.08,373.866a2.827,2.827,0,1,1,2.826-2.827,2.82,2.82,0,0,1-2.826,2.827m6.952-22.309a2.861,2.861,0,0,1,0-3.973,2.767,2.767,0,0,1,3.973,0,2.809,2.809,0,1,1-3.973,3.973m42.938-3.973a2.766,2.766,0,0,1,3.972,0,2.809,2.809,0,1,1-3.972,0m10.925,18.336a5.078,5.078,0,0,0-4.966,3.973H253.97v-8.022a.457.457,0,0,0-.077-.306v-.076c0-.076-.076-.152-.076-.229v-.076c-.152,0-.229-.076-.3-.076l-.076-.077c-.077-.076-.154-.076-.23-.152l-4.66-2.369,4.66-4.66a4.991,4.991,0,0,0,2.75.765,5.1,5.1,0,0,0,3.592-1.528,5.132,5.132,0,0,0-7.259-7.258,5.088,5.088,0,0,0-.687,6.341l-5.195,5.195-10.772-5.424v-6.418a5.119,5.119,0,1,0-2.293,0v6.418l-10.772,5.424-5.195-5.195a5.117,5.117,0,1,0-7.946.917,5.1,5.1,0,0,0,3.591,1.528,5.173,5.173,0,0,0,2.751-.765l4.66,4.66-4.66,2.369c-.076,0-.154.076-.23.152l-.076.077c-.076.076-.152.152-.152.229v.076c0,.076-.076.152-.076.23v.076c0,.076-.076.152-.076.3v8.022H209.2a5.118,5.118,0,1,0,0,2.293h5.96v8.251a1076.749,1076.749,0,0,1,.152.152l.076.076.076.076.076.077.076.076.077.076h.076l4.66,2.368-4.66,4.661a5.113,5.113,0,0,0-6.342,7.945,5.083,5.083,0,0,0,7.87-6.341l5.195-5.195,10.772,5.424V396.4a5.119,5.119,0,1,0,2.291,0v-6.418l10.774-5.424,5.195,5.195a5.2,5.2,0,0,0,.687,6.341,4.983,4.983,0,0,0,7.182,0,5.164,5.164,0,0,0,0-7.258,5.088,5.088,0,0,0-6.341-.687l-4.66-4.661,4.66-2.368h.076l.076-.076.076-.076.076-.077.077-.076.076-.076a.075.075,0,0,1,.076-.076.075.075,0,0,1,.076-.076v-8.4h5.96a5.105,5.105,0,0,0,10.084-1.146,4.866,4.866,0,0,0-4.813-5.119" transform="translate(-199.114 -335.436)" fill="#dc2521"/>
</svg>
