<svg xmlns="http://www.w3.org/2000/svg" width="57.5" height="50.313" viewBox="0 0 57.5 50.313">
  <g id="store-line" transform="translate(-2 -4)">
    <path id="Path_5250" data-name="Path 5250" d="M45.531,36.375H23.969V22H20.375V36.375H9.594V22H6V36.375a3.594,3.594,0,0,0,3.594,3.594H45.531a3.594,3.594,0,0,0,3.594-3.594V22H45.531Z" transform="translate(3.188 14.344)" fill="#1f2c40"/>
    <path id="Path_5251" data-name="Path 5251" d="M59.123,20.657,51.791,5.995A3.594,3.594,0,0,0,48.575,4H12.925A3.594,3.594,0,0,0,9.709,5.995L2.377,20.657A3.594,3.594,0,0,0,2,22.274v5.534a3.594,3.594,0,0,0,.827,2.3,8.391,8.391,0,0,0,6.361,2.875,8.481,8.481,0,0,0,5.391-1.923,8.5,8.5,0,0,0,10.781,0,8.5,8.5,0,0,0,10.781,0,8.5,8.5,0,0,0,10.781,0,8.481,8.481,0,0,0,11.734-.934,3.594,3.594,0,0,0,.845-2.3V22.274a3.594,3.594,0,0,0-.377-1.617Zm-6.81,8.733a4.816,4.816,0,0,1-3.917-2.03l-1.473-2.012-1.455,2.012a4.87,4.87,0,0,1-7.852,0l-1.473-2.012-1.455,2.012a4.87,4.87,0,0,1-7.852,0l-1.473-2.012L23.9,27.359a4.87,4.87,0,0,1-7.852,0l-1.473-2.012L13.1,27.359a4.816,4.816,0,0,1-3.917,2.03,4.744,4.744,0,0,1-3.594-1.581V22.274l7.331-14.68h35.65l7.331,14.662v5.5a4.8,4.8,0,0,1-3.594,1.635Z" transform="translate(0 0)" fill="#1f2c40"/>
  </g>
</svg>
