<svg xmlns="http://www.w3.org/2000/svg" width="159" height="43.071" viewBox="0 0 159 43.071">
  <g id="Group_2692" data-name="Group 2692" transform="translate(-373 -1384.926)">
    <g id="Group_2543" data-name="Group 2543" transform="translate(405.234 1389.515)">
      <path id="Path_5254" data-name="Path 5254" d="M0,0H100.766" fill="none" stroke="#909090" stroke-linecap="round" stroke-width="4" stroke-dasharray="1 12"/>
      <line id="Line_13" data-name="Line 13" x2="100.766" transform="translate(0 17.27)" fill="none" stroke="#e03116" stroke-linecap="round" stroke-width="4" stroke-dasharray="1 12"/>
      <line id="Line_19" data-name="Line 19" x2="100.766" transform="translate(0 34.539)" fill="none" stroke="#1f2c40" stroke-linecap="round" stroke-width="4" stroke-dasharray="1 12"/>
    </g>
    <g id="Group_2546" data-name="Group 2546" transform="translate(373 1385.571)">
      <path id="Path_5253" data-name="Path 5253" d="M29.963,30.288a2.068,2.068,0,0,0,.5,1.177l16.515,19.1a2.065,2.065,0,0,0,3.2-2.6c-.029-.036-.06-.072-.092-.106L34.753,30.11,50.091,12.369A2.065,2.065,0,0,0,47.07,9.554c-.031.034-.062.07-.092.106l-16.515,19.1A2.066,2.066,0,0,0,29.963,30.288Z" transform="translate(-29.956 -8.897)" fill="#d4d3d2"/>
    </g>
    <g id="Group_2547" data-name="Group 2547" transform="translate(511.311 1384.926)">
      <path id="Path_5253-2" data-name="Path 5253" d="M50.637,30.288a2.068,2.068,0,0,1-.5,1.177L33.623,50.56a2.065,2.065,0,0,1-3.2-2.6c.029-.036.06-.072.092-.106L45.847,30.11,30.51,12.369a2.065,2.065,0,1,1,3.021-2.815c.031.034.062.07.092.106l16.515,19.1A2.066,2.066,0,0,1,50.637,30.288Z" transform="translate(-29.956 -8.897)" fill="#d4d3d2"/>
    </g>
  </g>
</svg>
